<svg xmlns:xlink="http://www.w3.org/1999/xlink" xmlns="http://www.w3.org/2000/svg" class="css-ze2te4 css-qd6ojx" viewBox="0 0 56.45161290322581 81.45768506872166" width="110"  height="110" ><g transform="translate(-14.231649889268393, -4.732565571628108) scale(0.9040178704488232)" class="css-1mun45u" fill="#111111"><path xmlns="http://www.w3.org/2000/svg" d="M46.5137749,5.3227677c0.0449104-0.0410204,0.0747452-0.0702858,0.0747452-0.0702858  S46.4868622,5.2862062,46.5137749,5.3227677z" fill="#111111"></path><path xmlns="http://www.w3.org/2000/svg" d="M78.1773605,33.0585403c-0.4170914-7.6054459-13.6245651-17.9941902-21.2172012-22.870657  c0,0,0.3258934-5.2942071-5.5685387-4.9354014c-4.0960274,0.2496886-4.8181,0.1524882-4.8778458,0.0702858  c-0.3678017,0.3438082-2.1407547,2.0031829-3.055603,2.9442973c-0.3048134,0.0141058-0.6159515,0.0335627-0.932766,0.0604773  c-3.6595573,0.4858389-6.8017426,1.6241102-6.8017426,1.6241102c-0.040451,0.0209961-0.0749054,0.0434523-0.1138191,0.0643673  c-0.0253716,0.2026691-0.0596657,0.5658531-0.0715828,1.0561504c-0.080822,3.2470045,0.9148483,11.9487305,13.3689575,14.762104  c1.0195084,0.2302322,1.9417343,0.4843807,2.7924576,0.7527142c0.3243523,0.1023884,0.6383286,0.2071285,0.9402237,0.314785  c0.3304329,0.1180363,0.6488647,0.2385025,0.9537621,0.3617249c3.3455811,1.3528576,5.1065331,3.0032349,5.9556389,4.5795956  c0.0298309-4.0010147-0.3228111-9.4828949-2.1436729-14.1574211c3.1124306,2.8253727,8.6345177,8.2624207,13.4049492,15.1628227  c0,0-4.3382568,4.8861122-12.3704453,2.798378c-2.7311707-1.4164162-5.2770195-3.4247894-6.3414421-7.0888863  c-1.0224228-0.3661022-2.2005005-0.7122612-3.5757332-1.0230751c-8.7153435-1.9689713-12.2387886-6.7294292-13.6603928-10.3761787  c-0.5830383-1.4926186-0.8641014-2.9189234-0.9867554-4.1266708c-0.5126724,1.2930307-0.2795219,2.7400885-0.0582886,4.0802994  c0.1539459,0.9334946,0.2870598,1.7400379,0.1451111,2.4284649c-0.2960587,1.4336014-1.1317062,3.2378445-1.6459198,4.262701  c0.1704063,0.139761,0.3213539,0.3065186,0.4499283,0.4985676c0.5711212,0.8476429,0.5859566,2.0151806,0.5247498,2.7311707  c0.7488213,0.5770397,1.0405045,1.4283314,1.0912514,1.916441c0.0015411,0.0163746,0.0029182,0.0329132,0.0029182,0.0492878  c0.0643692,1.3739357,0.5472908,2.0706329,1.4322243,2.0706329c0.0972023,0,0.156868-0.0113506,0.1584892-0.0113506  c0.010376-0.0008106,0.0343704-0.005188,0.0432892-0.005188l5.8958931-0.756361  c0.0358315-0.0046215,0.0747414-0.0060005,0.1105766-0.0060005c0.2123146,0,0.4201736,0.0770149,0.5799561,0.2211533  c0,0,2.0720901,1.1092491,2.0720901,4.6297779c0,0-0.3977165,3.5369835-4.0348206,3.9959068  c-3.6371002,0.4603043-6.9587708,0.2989769-8.4387436,2.6728821c-1.4828892,2.3723679-0.4050121,10.9942398-1.8865242,16.9215889  c0,0-0.9895935,13.1587486-2.2034206,16.526783l6.6015034,0.1726761c0,0,4.2903481-12.0503082,4.3022652-21.5176392  c0,0,3.9480782,6.9684181,2.9882355,15.1860046c0,0-0.8983917,4.0421982-2.4380302,6.387085  c1.6622124,0.6583481,8.3116302,2.5255814,14.6619072,2.5404968c-2.6609688-14.6036949-1.0793381-27.1668396-1.0793381-27.1668396  c-1.2168236,12.2267952,1.8686104,22.9690781,3.1318092,26.9859772c2.9075737-0.3199692,5.9333458-1.0927887,8.8634567-2.5877609  c0,0-6.7749901-9.7153168-1.5861702-22.9242439C66.1717987,45.6882401,78.6003723,40.7602158,78.1773605,33.0585403z" fill="#111111"></path><path xmlns="http://www.w3.org/2000/svg" d="M42.9275017,79.2981033c-13.7231407-5.3292313-23.7554302,0.8737488-27.1848373,6.3315506  c0,0,16.0000076,0.9277344,30.518425,7.5323181c16.3423538,7.4340744,25.7632332-5.7853088,20.4129295-15.1345291  C66.6740189,78.0274429,56.6508064,84.6266785,42.9275017,79.2981033z" fill="#111111"></path></g></svg>